<mxfile host="app.diagrams.net" modified="2024-05-23T18:44:21.455Z" agent="Mozilla/5.0 (Macintosh; Intel Mac OS X 10_15_7) AppleWebKit/537.36 (KHTML, like Gecko) Chrome/124.0.0.0 Safari/537.36" version="24.4.6" etag="-3SJmMqOHA46CALPi0LD" type="github">
  <diagram name="Page-1" id="evmKLVrGtomXqUDyta00">
    <mxGraphModel>
      <root>
        <mxCell id="0" />
        <mxCell id="1" parent="0" />
      </root>
    </mxGraphModel>
  </diagram>
</mxfile>
